<svg id="Gradient_Line" height="512" viewBox="0 0 64 64" width="512" xmlns="http://www.w3.org/2000/svg" xmlns:xlink="http://www.w3.org/1999/xlink" data-name="Gradient Line"><linearGradient id="linear-gradient" gradientUnits="userSpaceOnUse" x1="3.988" x2="60.009" y1="31.999" y2="31.999"><stop offset="0" stop-color="#ffde00"/><stop offset="1" stop-color="#fd5900"/></linearGradient><path d="m56.00913 21.99877h-4.99927v-2.33305c4.6832-1.72513 3.52224-8.54852-1.43579-8.66057-2.6837-4.3331-7.44024-7.00623-12.56304-7.00623s-9.8794 2.67314-12.56323 7.00629c-4.94711.12654-6.12434 6.88975-1.43694 8.67216-.00013.00001-.00013 8.62574-.00013 8.62574-14.03709-2.74697-24.37163 13.34538-16.03906 24.96213 2.91566 4.16884 7.92275 6.77197 13.03384 6.73321 1.52873.00003 3.00278-.22843 4.40389-.63083.63425.40448 1.37322.63085 2.14119.63085h20.91889c2.39825.05458 4.39314-2.29395 3.94604-4.65528.00006.00005-.40569-2.42505-.40569-2.42505v-4.91958s4.99927 0 4.99927 0c2.20546 0 3.9998-1.79393 3.9998-3.99997v-17.99986c0-2.20604-1.79435-3.99997-3.9998-3.99997zm-7.01626 35.29465c-.38084.44824-.93599.70507-1.52336.70507h-19.73701c1.83005-1.01464 3.43751-2.37858 4.73982-3.99997h16.69053c.12009.97694.66044 2.48119-.16997 3.2949zm9.01616-13.29482c0 1.10253-.89693 1.99998-1.9999 1.99998h-5.99922c-.55222 0-.99995.44726-.99995.99999v4.99996s-15.17321 0-15.17321 0c3.11288-5.14969 2.82931-12.33888-.8017-17.2606-.3197-.44825-.94321-.55762-1.39436-.23438-.45017.31933-.55515.94433-.23534 1.39452 1.69669 2.38475 2.59362 5.18844 2.59362 8.10638-.0262 13.54641-17.55313 19.13701-25.3948 8.10518-1.69615-2.37476-2.59259-5.17747-2.59259-8.10518-.14414-11.19795 13.0807-18.02351 22.09912-11.40202.44957.32008 1.07308.21656 1.39484-.23265.32079-.44922.21679-1.07421-.2329-1.39452-1.31842-.9417-2.7534-1.6632-4.262-2.1613v-9.88548c-.02111-.10139-.02856-.20746-.06188-.30652-.10208-.34682-.41222-.57652-.7457-.6749-3.10421-.60781-2.75079-4.85325.30964-4.94825-.00007.00003 2.49931.00003 2.49931.00003 1.06831 0 2.06142.57421 2.59265 1.49804.27489.47949.88668.64355 1.36566.36914.47849-.27539.64352-.88671.36863-1.36522-.88716-1.54296-2.54529-2.50193-4.32694-2.50193h-.1383c2.39808-3.12003 6.14014-4.99996 10.13732-4.99996 4.59987 0 8.86431 2.48729 11.12836 6.49214.25278.50289.87932.53698 1.37055.50777 3.44068.19543 3.20861 4.92036-.20027 4.99996.00007.00004-5.29898.00004-5.29898.00004-1.65422 0-2.99985 1.34569-2.99985 2.99998v4.49996c0 .39746-.15917.78515-.43797 1.06347-.9507 1.02024-2.62079.084-2.56185-1.2237-.00004.00008-.00004-4.33973-.00004-4.33973 0-1.65428-1.34564-2.99998-2.99985-2.99998h-5.99922c-1.31094.02356-1.31791 1.97597.00005 1.99998-.00005 0 5.99917 0 5.99917 0 .55124 0 .99995.44824.99995.99999v4.33981c-.05191 3.09178 3.75885 4.91447 5.97631 2.63659.65032-.64931 1.02335-1.55164 1.02335-2.47644v-4.49996c0-.55175.44871-.99999.99995-.99999h4.99927v21.99983c.01147 1.30024 1.98111 1.3241 1.99989-.00006v-17.9998h4.99927c1.10297 0 1.9999.89745 1.9999 1.99998v17.99986zm-39.87792-2.36033c-2.72827 2.86526 1.37695 6.97027 4.24107 4.24111 2.72788-2.88402-1.35552-6.90562-4.24107-4.24111zm2.82701 2.82713c-.94892.89534-2.3273-.46478-1.4125-1.41311.92572-.92212 2.33342.48726 1.4125 1.41311zm2.53552-11.22159c-1.37968-.83453-3.319-.31396-4.09647 1.09866-1.19205 1.90854.39324 4.5809 2.59907 4.49792 3.02593.01793 4.13115-4.10374 1.4974-5.59657zm-1.24017 3.56247c-1.27664.31482-1.77946-1.56919-.51702-1.92968 1.27213-.32005 1.77893 1.56771.51702 1.92968zm6.69205 2.31346c-3.84579-.93155-5.34656 4.67736-1.55306 5.79295 3.84376.93209 5.34846-4.67608 1.55306-5.79295zm.18847 3.15525c-.3424 1.26119-2.26424.74524-1.92957-.51763.36095-1.26311 2.24932-.75473 1.92957.51763z" fill="url(#linear-gradient)"/></svg>